<svg width="28" height="28" viewBox="0 0 28 28" fill="none" xmlns="http://www.w3.org/2000/svg">
<path d="M7.1665 3.46387H20.6665C23.1518 3.46387 25.1665 5.47859 25.1665 7.96387V16.9639C25.1665 19.4491 23.1518 21.4639 20.6665 21.4639H7.1665C4.68122 21.4639 2.6665 19.4491 2.6665 16.9639V7.96387C2.6665 5.47859 4.68122 3.46387 7.1665 3.46387Z" fill="white" fill-opacity="0.6"/>
<path d="M11.6665 21.7451C11.2005 21.7451 10.8228 22.1229 10.8228 22.5889C10.8228 23.0549 11.2005 23.4326 11.6665 23.4326H16.1665C16.6325 23.4326 17.0103 23.0549 17.0103 22.5889C17.0103 22.1229 16.6325 21.7451 16.1665 21.7451H11.6665Z" fill="white" fill-opacity="0.6"/>
</svg>
