<svg width="28" height="28" viewBox="0 0 28 28" fill="none" xmlns="http://www.w3.org/2000/svg">
<path fill-rule="evenodd" clip-rule="evenodd" d="M10.9614 3.55273H15.8475C17.0409 3.55273 18.1855 4.02684 19.0294 4.87075L20.8934 6.73472C21.7373 7.57863 22.2114 8.72322 22.2114 9.9167V19.3027C22.2114 21.788 20.1967 23.8027 17.7114 23.8027H10.9614C8.47614 23.8027 6.46143 21.788 6.46143 19.3027V8.05273C6.46143 5.56745 8.47614 3.55273 10.9614 3.55273ZM13.4927 19.3027C13.4927 19.7687 13.8704 20.1465 14.3364 20.1465C14.8024 20.1465 15.1802 19.7687 15.1802 19.3027L15.1802 10.3027C15.1802 9.83674 14.8024 9.45898 14.3364 9.45898C13.8704 9.45898 13.4927 9.83674 13.4927 10.3027L13.4927 19.3027ZM9.83643 20.1465C9.37044 20.1465 8.99268 19.7687 8.99268 19.3027L8.99268 13.1152C8.99268 12.6492 9.37044 12.2715 9.83643 12.2715C10.3024 12.2715 10.6802 12.6492 10.6802 13.1152L10.6802 19.3027C10.6802 19.7687 10.3024 20.1465 9.83643 20.1465ZM17.9927 19.3027C17.9927 19.7687 18.3704 20.1465 18.8364 20.1465C19.3024 20.1465 19.6802 19.7687 19.6802 19.3027V15.9277C19.6802 15.4617 19.3024 15.084 18.8364 15.084C18.3704 15.084 17.9927 15.4617 17.9927 15.9277V19.3027Z" fill="white" fill-opacity="0.6"/>
</svg>
