<svg width="28" height="28" viewBox="0 0 28 28" fill="none" xmlns="http://www.w3.org/2000/svg">
<path d="M6.57441 3.6416H8.75032C9.43999 3.6416 10.0952 3.92862 10.5441 4.42732L11.5182 5.50965C11.8852 5.91745 12.0869 6.43683 12.0869 6.97393V10.3916C12.0869 11.6342 11.0292 12.6416 9.72441 12.6416H6.57441C5.26964 12.6416 4.21191 11.6342 4.21191 10.3916V5.8916C4.21191 4.64896 5.26964 3.6416 6.57441 3.6416Z" fill="white" fill-opacity="0.6"/>
<path d="M17.8244 14.8916H20.0003C20.69 14.8916 21.3452 15.1786 21.7941 15.6773L22.7682 16.7597C23.1352 17.1674 23.3369 17.6868 23.3369 18.2239V21.6416C23.3369 22.8842 22.2792 23.8916 20.9744 23.8916H17.8244C16.5196 23.8916 15.4619 22.8842 15.4619 21.6416V17.1416C15.4619 15.899 16.5196 14.8916 17.8244 14.8916Z" fill="white" fill-opacity="0.6"/>
<path d="M17.4989 7.29785L17.746 7.05072C18.0755 6.72122 18.0755 6.18698 17.746 5.85748C17.4165 5.52798 16.8823 5.52798 16.5528 5.85748L14.8669 7.54333C14.7133 7.69615 14.6182 7.90777 14.6182 8.1416C14.6182 8.36258 14.7031 8.56371 14.8421 8.71413C14.8497 8.7223 14.8574 8.73034 14.8653 8.73823L16.5528 10.4257C16.8823 10.7552 17.4165 10.7552 17.746 10.4257C18.0755 10.0962 18.0755 9.56198 17.746 9.23248L17.4989 8.98535H18.8369C19.6135 8.98535 20.2431 9.61495 20.2431 10.3916V11.5166C20.2431 11.9826 20.6209 12.3604 21.0869 12.3604C21.5529 12.3604 21.9306 11.9826 21.9306 11.5166V10.3916C21.9306 8.68297 20.5455 7.29785 18.8369 7.29785H17.4989Z" fill="white" fill-opacity="0.6"/>
<path d="M10.0499 18.5479H8.71197C7.93532 18.5479 7.30572 17.9183 7.30572 17.1416V16.0166C7.30572 15.5506 6.92796 15.1729 6.46197 15.1729C5.99598 15.1729 5.61822 15.5506 5.61822 16.0166V17.1416C5.61822 18.8502 7.00334 20.2354 8.71197 20.2354H10.0499L9.80279 20.4825C9.47329 20.812 9.47329 21.3462 9.80279 21.6757C10.1323 22.0052 10.6665 22.0052 10.996 21.6757L12.6835 19.9882C12.8418 19.83 12.9307 19.6154 12.9307 19.3916C12.9307 19.1781 12.8498 18.973 12.705 18.8172C12.698 18.8097 12.6908 18.8023 12.6835 18.795L10.996 17.1075C10.6665 16.778 10.1323 16.778 9.80279 17.1075C9.47329 17.437 9.47329 17.9712 9.80279 18.3007L10.0499 18.5479Z" fill="white" fill-opacity="0.6"/>
</svg>
