<svg width="28" height="27" viewBox="0 0 28 27" fill="none" xmlns="http://www.w3.org/2000/svg">
<path fill-rule="evenodd" clip-rule="evenodd" d="M14.4443 4.21875C9.31844 4.21875 5.16309 8.37411 5.16309 13.5V19.125C5.16309 19.591 4.78533 19.9688 4.31934 19.9688C3.85335 19.9688 3.47559 19.591 3.47559 19.125V13.5C3.47559 7.44213 8.38646 2.53125 14.4443 2.53125C20.5022 2.53125 25.4131 7.44213 25.4131 13.5V23.625C25.4131 24.091 25.0353 24.4688 24.5693 24.4688C24.1033 24.4688 23.7256 24.091 23.7256 23.625V13.5C23.7256 8.37411 19.5702 4.21875 14.4443 4.21875Z" fill="white" fill-opacity="0.6"/>
<path fill-rule="evenodd" clip-rule="evenodd" d="M12.1943 9.28125C10.175 9.28125 8.53809 10.9182 8.53809 12.9375V15.75C8.53809 16.216 8.16033 16.5938 7.69434 16.5938C7.22835 16.5938 6.85059 16.216 6.85059 15.75V12.9375C6.85059 9.98623 9.24306 7.59375 12.1943 7.59375C12.6603 7.59375 13.0381 7.97151 13.0381 8.4375C13.0381 8.90349 12.6603 9.28125 12.1943 9.28125Z" fill="white" fill-opacity="0.6"/>
<path fill-rule="evenodd" clip-rule="evenodd" d="M13.6006 6.75C13.6006 6.28401 13.9783 5.90625 14.4443 5.90625C18.6382 5.90625 22.0381 9.30609 22.0381 13.5V14.0625C22.0381 14.5285 21.6603 14.9062 21.1943 14.9062C20.7283 14.9062 20.3506 14.5285 20.3506 14.0625V13.5C20.3506 10.2381 17.7063 7.59375 14.4443 7.59375C13.9783 7.59375 13.6006 7.21599 13.6006 6.75Z" fill="white" fill-opacity="0.6"/>
<path fill-rule="evenodd" clip-rule="evenodd" d="M13.6142 11.0991C13.6976 10.6406 14.1368 10.3365 14.5953 10.4199C15.7932 10.6377 17.4226 11.3873 18.3638 12.9879C19.3303 14.6316 19.4474 16.9547 18.0229 20.0411C17.8276 20.4642 17.3264 20.6489 16.9033 20.4536C16.4802 20.2583 16.2955 19.757 16.4907 19.3339C17.7663 16.5703 17.5083 14.8622 16.9092 13.8433C16.2848 12.7815 15.158 12.2373 14.2934 12.0801C13.8349 11.9968 13.5308 11.5575 13.6142 11.0991Z" fill="white" fill-opacity="0.6"/>
<path fill-rule="evenodd" clip-rule="evenodd" d="M14.4443 16.0312C14.9103 16.0312 15.2881 16.409 15.2881 16.875V20.25C15.2881 20.716 14.9103 21.0938 14.4443 21.0938C13.9783 21.0938 13.6006 20.716 13.6006 20.25V16.875C13.6006 16.409 13.9783 16.0312 14.4443 16.0312Z" fill="white" fill-opacity="0.6"/>
<path fill-rule="evenodd" clip-rule="evenodd" d="M21.1943 17.1562C21.6603 17.1562 22.0381 17.534 22.0381 18V21.375C22.0381 21.841 21.6603 22.2188 21.1943 22.2188C20.7283 22.2188 20.3506 21.841 20.3506 21.375V18C20.3506 17.534 20.7283 17.1562 21.1943 17.1562Z" fill="white" fill-opacity="0.6"/>
<path fill-rule="evenodd" clip-rule="evenodd" d="M7.69434 18.2812C8.16033 18.2812 8.53809 18.659 8.53809 19.125V22.5C8.53809 22.966 8.16033 23.3438 7.69434 23.3438C7.22835 23.3438 6.85059 22.966 6.85059 22.5V19.125C6.85059 18.659 7.22835 18.2812 7.69434 18.2812Z" fill="white" fill-opacity="0.6"/>
<path fill-rule="evenodd" clip-rule="evenodd" d="M11.3309 17.0761C11.34 17.1963 11.3506 17.3361 11.3506 17.4375C11.3506 17.9035 10.9728 18.2812 10.5068 18.2812C10.0408 18.2812 9.66309 17.9035 9.66309 17.4375L9.66307 17.4358L9.66297 17.4309L9.66234 17.4134C9.66168 17.3983 9.66062 17.379 9.65905 17.3546C9.65604 17.3078 9.65188 17.2524 9.6467 17.1835L9.64569 17.1701C9.63467 17.0236 9.6206 16.8343 9.61118 16.6224C9.59255 16.2031 9.59042 15.6656 9.6729 15.1295C9.75365 14.6046 9.92778 13.996 10.3261 13.5047C10.756 12.9744 11.3873 12.6562 12.1943 12.6562C12.6603 12.6562 13.0381 13.034 13.0381 13.5C13.0381 13.966 12.6603 14.3438 12.1943 14.3438C11.8764 14.3438 11.7342 14.4474 11.6368 14.5675C11.5078 14.7267 11.4006 14.997 11.3408 15.3861C11.2826 15.764 11.2805 16.1758 11.297 16.5475C11.3052 16.7311 11.3175 16.8978 11.3284 17.0436C11.3292 17.0542 11.3301 17.0651 11.3309 17.0761Z" fill="white" fill-opacity="0.6"/>
</svg>
