<svg width="28" height="27" viewBox="0 0 28 27" fill="none" xmlns="http://www.w3.org/2000/svg">
<path fill-rule="evenodd" clip-rule="evenodd" d="M7.33936 4.5H20.8394C23.3246 4.5 25.3394 6.51472 25.3394 9V18C25.3394 20.4853 23.3246 22.5 20.8394 22.5H7.33936C4.85407 22.5 2.83936 20.4853 2.83936 18V9C2.83936 6.51472 4.85407 4.5 7.33936 4.5ZM8.01436 7.36875C7.73476 6.99596 7.2059 6.92041 6.83311 7.2C6.46031 7.47959 6.38476 8.00846 6.66436 8.38125L9.81436 12.5812C11.9519 15.4313 16.2269 15.4313 18.3644 12.5812L21.5144 8.38125C21.7939 8.00846 21.7184 7.47959 21.3456 7.2C20.9728 6.92041 20.4439 6.99596 20.1644 7.36875L17.0144 11.5687C15.5519 13.5187 12.6269 13.5187 11.1644 11.5687L8.01436 7.36875Z" fill="white" fill-opacity="0.6"/>
</svg>
