<svg width="28" height="28" viewBox="0 0 28 28" fill="none" xmlns="http://www.w3.org/2000/svg">
<path d="M4.90527 13.3837C4.90527 7.84699 9.39881 3.36035 14.9397 3.36035C20.4806 3.36035 24.9742 7.84699 24.9742 13.3837V13.7627C24.9742 14.4637 24.9064 15.1442 24.7777 15.7993C23.8093 12.5094 20.7642 10.1104 17.1617 10.1104C12.7809 10.1104 9.22418 13.6582 9.22418 18.0414V18.2643C9.22418 20.3517 9.9902 22.2058 11.2248 23.617C11.19 23.6052 11.1551 23.5933 11.1203 23.5811L10.4132 23.3339L8.8137 23.0382C6.52944 22.7507 5.01326 22.2819 4.12043 21.7814C3.69578 21.5433 3.28976 21.2312 3.08989 20.8196C2.98022 20.5938 2.91218 20.2899 3.01267 19.9651C3.11331 19.6399 3.34119 19.4289 3.55735 19.3076C4.48172 18.7885 4.90105 18.1966 5.0978 17.7781C5.1986 17.5637 5.24593 17.384 5.26806 17.2672C5.27695 17.2202 5.28172 17.1838 5.28423 17.1597L4.90527 13.4264V13.3837Z" fill="white" fill-opacity="0.6"/>
<path fill-rule="evenodd" clip-rule="evenodd" d="M23.4118 18.0841L23.1913 20.2558L23.1923 20.2611C23.2006 20.3049 23.2202 20.3822 23.2655 20.4785C23.3512 20.6608 23.5482 20.954 24.0273 21.223C24.2111 21.3262 24.4177 21.5133 24.5095 21.8101C24.6012 22.1064 24.5369 22.3774 24.4447 22.5672C24.2799 22.9066 23.9642 23.1338 23.6959 23.2842C23.1161 23.6093 22.1768 23.8922 20.8187 24.064L19.9138 24.2312L19.5231 24.3678C15.3158 25.8386 10.9117 22.72 10.9117 18.2643V18.0414C10.9117 14.5922 13.7109 11.7979 17.1617 11.7979C20.6126 11.7979 23.4118 14.5922 23.4118 18.0414V18.0841ZM14.6242 19.6729C15.0902 19.6729 15.468 19.2951 15.468 18.8291C15.468 18.3631 15.0902 17.9854 14.6242 17.9854C14.1582 17.9854 13.7805 18.3631 13.7805 18.8291C13.7805 19.2951 14.1582 19.6729 14.6242 19.6729ZM17.4367 19.6729C17.9027 19.6729 18.2805 19.2951 18.2805 18.8291C18.2805 18.3631 17.9027 17.9854 17.4367 17.9854C16.9707 17.9854 16.593 18.3631 16.593 18.8291C16.593 19.2951 16.9707 19.6729 17.4367 19.6729ZM21.093 18.8291C21.093 19.2951 20.7152 19.6729 20.2492 19.6729C19.7832 19.6729 19.4055 19.2951 19.4055 18.8291C19.4055 18.3631 19.7832 17.9854 20.2492 17.9854C20.7152 17.9854 21.093 18.3631 21.093 18.8291Z" fill="white" fill-opacity="0.6"/>
</svg>
