<svg width="29" height="28" viewBox="0 0 29 28" fill="none" xmlns="http://www.w3.org/2000/svg">
<path d="M14.8057 2.37598C8.40305 2.37598 3.16455 7.5225 3.16455 13.8127C3.16455 20.1029 8.40305 25.2494 14.8057 25.2494C21.2083 25.2494 26.4468 20.1029 26.4468 13.8127C26.4468 7.5225 21.2083 2.37598 14.8057 2.37598Z" fill="white" fill-opacity="0.6"/>
<path d="M14.8057 16.1003C14.1072 16.1003 13.6416 15.6429 13.6416 14.9567V7.29406C13.6416 6.60786 14.1072 6.15039 14.8057 6.15039C15.5042 6.15039 15.9698 6.60786 15.9698 7.29406V14.9567C15.9698 15.5285 15.5042 16.1003 14.8057 16.1003Z" fill="#131210"/>
<path d="M14.8057 21.4755C14.1072 21.4755 13.6416 21.018 13.6416 20.3318V19.1881C13.6416 18.5019 14.1072 18.0444 14.8057 18.0444C15.5042 18.0444 15.9698 18.5019 15.9698 19.1881V20.3318C15.9698 21.018 15.5042 21.4755 14.8057 21.4755Z" fill="#131210"/>
</svg>
