<svg width="28" height="28" viewBox="0 0 28 28" fill="none" xmlns="http://www.w3.org/2000/svg">
<path d="M12.4087 5.41797C12.4087 4.48599 13.1642 3.73047 14.0962 3.73047H16.3462C17.2782 3.73047 18.0337 4.48599 18.0337 5.41797V22.293C18.0337 23.225 17.2782 23.9805 16.3462 23.9805H14.0962C13.1642 23.9805 12.4087 23.2249 12.4087 22.293V5.41797Z" fill="white" fill-opacity="0.6"/>
<path d="M6.70918 4.98163C6.9504 4.08141 7.87571 3.54717 8.77594 3.78839L10.9493 4.37073C11.8495 4.61194 12.3837 5.53726 12.1425 6.43749L7.77494 22.7375C7.53373 23.6377 6.60841 24.1719 5.70819 23.9307L3.53485 23.3484C2.63463 23.1072 2.1004 22.1819 2.34161 21.2816L6.70918 4.98163Z" fill="white" fill-opacity="0.6"/>
<path d="M20.8462 3.73047C19.9142 3.73047 19.1587 4.48599 19.1587 5.41797V22.293C19.1587 23.2249 19.9142 23.9805 20.8462 23.9805H23.0962C24.0282 23.9805 24.7837 23.225 24.7837 22.293V5.41797C24.7837 4.48599 24.0282 3.73047 23.0962 3.73047H20.8462Z" fill="white" fill-opacity="0.6"/>
</svg>
