<svg width="28" height="28" viewBox="0 0 28 28" fill="none" xmlns="http://www.w3.org/2000/svg">
<path fill-rule="evenodd" clip-rule="evenodd" d="M17.9152 3.21495C18.0883 2.78229 17.8779 2.29125 17.4452 2.11819C17.0125 1.94512 16.5215 2.15557 16.3484 2.58823L15.6304 4.38338C15.6266 4.39275 15.6227 4.39716 15.6196 4.40003C15.6155 4.40367 15.6095 4.4074 15.6017 4.40982C15.594 4.41224 15.5869 4.41257 15.5815 4.41185C15.5773 4.41128 15.5716 4.40985 15.5632 4.40425C14.74 3.85545 13.6251 4.10614 13.1161 4.95452L11.9854 6.83909H10.3818C8.2851 6.83909 7.23673 6.83909 6.40976 7.18163C5.30713 7.63836 4.4311 8.51439 3.97438 9.61702C3.63184 10.444 3.63184 11.4924 3.63184 13.5891C3.63184 16.7342 3.63184 18.3067 4.14565 19.5472C4.83073 21.2011 6.14478 22.5152 7.79872 23.2003C9.03918 23.7141 10.6117 23.7141 13.7568 23.7141C16.9019 23.7141 18.4745 23.7141 19.7149 23.2003C21.3689 22.5152 22.6829 21.2011 23.368 19.5472C23.8818 18.3067 23.8818 16.7342 23.8818 13.5891C23.8818 11.4924 23.8818 10.444 23.5393 9.61702C23.0826 8.51439 22.2065 7.63836 21.1039 7.18163C20.2769 6.83909 19.2286 6.83909 17.1318 6.83909H13.9533L14.5631 5.82273C14.5764 5.80054 14.6056 5.79399 14.6271 5.80834C15.5429 6.41886 16.7884 6.03201 17.1972 5.0101L17.9152 3.21495ZM9.81934 15.8391C10.7513 15.8391 11.5068 15.0836 11.5068 14.1516C11.5068 13.2196 10.7513 12.4641 9.81934 12.4641C8.88736 12.4641 8.13184 13.2196 8.13184 14.1516C8.13184 15.0836 8.88736 15.8391 9.81934 15.8391ZM19.3818 14.1516C19.3818 15.0836 18.6263 15.8391 17.6943 15.8391C16.7624 15.8391 16.0068 15.0836 16.0068 14.1516C16.0068 13.2196 16.7624 12.4641 17.6943 12.4641C18.6263 12.4641 19.3818 13.2196 19.3818 14.1516ZM10.7522 17.7118C10.9606 17.295 11.4674 17.126 11.8842 17.3344L12.1217 17.4532C13.151 17.9679 14.3626 17.9679 15.392 17.4532L15.6295 17.3344C16.0463 17.126 16.5531 17.295 16.7615 17.7118C16.9699 18.1285 16.801 18.6354 16.3842 18.8438L16.1466 18.9625C14.6422 19.7147 12.8715 19.7147 11.367 18.9625L11.1295 18.8438C10.7127 18.6354 10.5438 18.1285 10.7522 17.7118Z" fill="white" fill-opacity="0.6"/>
</svg>
