<svg width="28" height="28" viewBox="0 0 28 28" fill="none" xmlns="http://www.w3.org/2000/svg">
<path fill-rule="evenodd" clip-rule="evenodd" d="M14.2671 2.32422C11.3158 2.32422 8.92334 4.7167 8.92334 7.66797V7.85546C8.17181 8.24324 7.50317 8.76758 6.94981 9.39612L4.66918 7.57161C4.3053 7.28051 3.77433 7.3395 3.48323 7.70338C3.19213 8.06726 3.25113 8.59822 3.615 8.88933L5.99918 10.7967C5.64084 11.5012 5.40215 12.2777 5.30953 13.0997C5.26709 13.4764 5.26709 13.9242 5.26709 14.8198V15.2617H3.57959C3.1136 15.2617 2.73584 15.6395 2.73584 16.1055C2.73584 16.5715 3.1136 16.9492 3.57959 16.9492H5.30612C5.41126 18.0801 5.72562 19.1502 6.21011 20.1205L3.615 22.1966C3.25113 22.4877 3.19213 23.0187 3.48323 23.3826C3.77433 23.7464 4.3053 23.8054 4.66918 23.5143L7.10937 21.5622C8.75377 23.7159 11.3482 25.1055 14.2671 25.1055C17.186 25.1055 19.7804 23.7159 21.4248 21.5622L23.865 23.5143C24.2289 23.8054 24.7598 23.7464 25.0509 23.3826C25.342 23.0187 25.2831 22.4877 24.9192 22.1966L22.3241 20.1205C22.8086 19.1502 23.1229 18.0801 23.2281 16.9492H24.9546C25.4206 16.9492 25.7983 16.5715 25.7983 16.1055C25.7983 15.6395 25.4206 15.2617 24.9546 15.2617H23.2671V14.8198C23.2671 13.9242 23.2671 13.4764 23.2246 13.0997C23.132 12.2777 22.8933 11.5012 22.535 10.7967L24.9192 8.88933C25.2831 8.59822 25.342 8.06726 25.0509 7.70338C24.7598 7.3395 24.2289 7.28051 23.865 7.57161L21.5844 9.39612C21.031 8.76758 20.3624 8.24324 19.6108 7.85546V7.66797C19.6108 4.7167 17.2184 2.32422 14.2671 2.32422ZM17.8995 7.24831C17.6914 5.42667 16.1445 4.01172 14.2671 4.01172C12.3897 4.01172 10.8428 5.42667 10.6347 7.24831C10.8402 7.20542 11.0493 7.17181 11.2613 7.14791C11.638 7.10547 12.0858 7.10547 12.9814 7.10547H15.5528C16.4484 7.10547 16.8962 7.10547 17.2729 7.14791C17.4849 7.17181 17.694 7.20543 17.8995 7.24831ZM14.2671 18.6367C14.7331 18.6367 15.1108 19.0145 15.1108 19.4805V22.8555C15.1108 23.3215 14.7331 23.6992 14.2671 23.6992C13.8011 23.6992 13.4233 23.3215 13.4233 22.8555V19.4805C13.4233 19.0145 13.8011 18.6367 14.2671 18.6367Z" fill="white" fill-opacity="0.6"/>
</svg>
