<svg width="28" height="28" viewBox="0 0 28 28" fill="none" xmlns="http://www.w3.org/2000/svg">
<path fill-rule="evenodd" clip-rule="evenodd" d="M18.959 3.73047H9.39648V7.10547C9.39648 7.57146 9.01872 7.94922 8.55273 7.94922C8.08674 7.94922 7.70898 7.57146 7.70898 7.10547V3.73047H7.42773C4.94245 3.73047 2.92773 5.74519 2.92773 8.23047V20.6055C2.92773 23.0907 4.94245 25.1055 7.42773 25.1055H20.9277C23.413 25.1055 25.4277 23.0907 25.4277 20.6055V8.23047C25.4277 5.74519 23.413 3.73047 20.9277 3.73047H20.6465V7.10547C20.6465 7.57146 20.2687 7.94922 19.8027 7.94922C19.3367 7.94922 18.959 7.57146 18.959 7.10547V3.73047ZM8.55273 12.7305C9.17405 12.7305 9.67773 12.2268 9.67773 11.6055C9.67773 10.9841 9.17405 10.4805 8.55273 10.4805C7.93141 10.4805 7.42773 10.9841 7.42773 11.6055C7.42773 12.2268 7.93141 12.7305 8.55273 12.7305ZM15.3027 11.6055C15.3027 12.2268 14.7991 12.7305 14.1777 12.7305C13.5564 12.7305 13.0527 12.2268 13.0527 11.6055C13.0527 10.9841 13.5564 10.4805 14.1777 10.4805C14.7991 10.4805 15.3027 10.9841 15.3027 11.6055ZM19.8027 12.7305C20.4241 12.7305 20.9277 12.2268 20.9277 11.6055C20.9277 10.9841 20.4241 10.4805 19.8027 10.4805C19.1814 10.4805 18.6777 10.9841 18.6777 11.6055C18.6777 12.2268 19.1814 12.7305 19.8027 12.7305ZM9.67773 15.543C9.67773 16.1643 9.17405 16.668 8.55273 16.668C7.93141 16.668 7.42773 16.1643 7.42773 15.543C7.42773 14.9216 7.93141 14.418 8.55273 14.418C9.17405 14.418 9.67773 14.9216 9.67773 15.543ZM14.1777 16.668C14.7991 16.668 15.3027 16.1643 15.3027 15.543C15.3027 14.9216 14.7991 14.418 14.1777 14.418C13.5564 14.418 13.0527 14.9216 13.0527 15.543C13.0527 16.1643 13.5564 16.668 14.1777 16.668ZM20.9277 15.543C20.9277 16.1643 20.4241 16.668 19.8027 16.668C19.1814 16.668 18.6777 16.1643 18.6777 15.543C18.6777 14.9216 19.1814 14.418 19.8027 14.418C20.4241 14.418 20.9277 14.9216 20.9277 15.543ZM8.55273 20.6055C9.17405 20.6055 9.67773 20.1018 9.67773 19.4805C9.67773 18.8591 9.17405 18.3555 8.55273 18.3555C7.93141 18.3555 7.42773 18.8591 7.42773 19.4805C7.42773 20.1018 7.93141 20.6055 8.55273 20.6055ZM15.3027 19.4805C15.3027 20.1018 14.7991 20.6055 14.1777 20.6055C13.5564 20.6055 13.0527 20.1018 13.0527 19.4805C13.0527 18.8591 13.5564 18.3555 14.1777 18.3555C14.7991 18.3555 15.3027 18.8591 15.3027 19.4805ZM19.8027 20.6055C20.4241 20.6055 20.9277 20.1018 20.9277 19.4805C20.9277 18.8591 20.4241 18.3555 19.8027 18.3555C19.1814 18.3555 18.6777 18.8591 18.6777 19.4805C18.6777 20.1018 19.1814 20.6055 19.8027 20.6055Z" fill="white" fill-opacity="0.6"/>
</svg>
