<svg width="30" height="30" viewBox="0 0 30 30" fill="none" xmlns="http://www.w3.org/2000/svg">
<path fill-rule="evenodd" clip-rule="evenodd" d="M14.9702 27.3208C21.8738 27.3208 27.4702 21.7244 27.4702 14.8208C27.4702 7.91724 21.8738 2.3208 14.9702 2.3208C8.06666 2.3208 2.47021 7.91724 2.47021 14.8208C2.47021 21.7244 8.06666 27.3208 14.9702 27.3208ZM15.9077 8.5708C15.9077 8.05303 15.488 7.6333 14.9702 7.6333C14.4524 7.6333 14.0327 8.05303 14.0327 8.5708V16.0708C14.0327 16.5886 14.4524 17.0083 14.9702 17.0083H19.9702C20.488 17.0083 20.9077 16.5886 20.9077 16.0708C20.9077 15.553 20.488 15.1333 19.9702 15.1333H15.9077V8.5708Z" fill="white"/>
</svg>
