<svg width="24" height="25" viewBox="0 0 24 25" fill="none" xmlns="http://www.w3.org/2000/svg">
<path d="M7.14609 20.1053C6.76469 20.1053 6.3985 20.0716 6.05016 20.008L7.45282 18.6053H16.2607C17.6985 18.4806 18.6843 17.9522 19.3099 17.2858C19.9445 16.6098 20.25 15.7484 20.25 14.8949C20.25 13.1951 19.0577 11.5839 16.8303 11.5839C16.4504 11.5839 16.1304 11.2997 16.0856 10.9224C16.0516 10.6365 16.0057 10.3656 15.949 10.1091L17.1653 8.89286C17.2952 9.27585 17.4012 9.68457 17.4809 10.1191C20.2252 10.4226 21.75 12.6395 21.75 14.8949C21.75 16.1052 21.3156 17.3408 20.4035 18.3125C19.4866 19.2892 18.1279 19.9565 16.354 20.1028C16.3335 20.1045 16.3129 20.1053 16.2923 20.1053H7.14609Z" fill="white"/>
<path d="M13.8934 6.84836C14.1 6.98563 14.2996 7.14452 14.4889 7.32663L15.5499 6.26558C15.2924 6.01542 15.0159 5.79323 14.7234 5.59892C13.2497 4.61994 11.4534 4.40564 9.80604 4.77626C8.15958 5.14669 6.61011 6.11182 5.61863 7.56518C4.71411 8.89107 4.29931 10.5875 4.66222 12.5224C3.77174 12.9615 3.11657 13.5595 2.71258 14.2637C2.21989 15.1225 2.135 16.0823 2.39033 16.9669C2.55812 17.5483 2.86676 18.0866 3.29191 18.5474C3.33604 18.4876 3.38517 18.4303 3.4393 18.3762L4.34436 17.4711C4.0951 17.1846 3.92295 16.8678 3.8315 16.551C3.68332 16.0376 3.73295 15.4994 4.01367 15.0101C4.29598 14.5181 4.84598 14.0189 5.79305 13.6674C6.15626 13.5325 6.357 13.1432 6.25623 12.7692C5.77285 10.9748 6.11168 9.50413 6.85775 8.41051C7.61481 7.30078 8.82267 6.535 10.1353 6.23968C11.447 5.94457 12.8116 6.12971 13.8934 6.84836Z" fill="white"/>
<path d="M2.96961 19.9065C2.67672 20.1994 2.67672 20.6743 2.96961 20.9672C3.2625 21.2601 3.73738 21.2601 4.03027 20.9672L18.8795 6.11792C19.1724 5.82502 19.1724 5.35015 18.8795 5.05726C18.5866 4.76436 18.1117 4.76436 17.8189 5.05726L2.96961 19.9065Z" fill="white"/>
</svg>
