<svg width="24" height="25" viewBox="0 0 24 25" fill="none" xmlns="http://www.w3.org/2000/svg">
<path d="M6.25632 12.7692C5.77295 10.9748 6.11177 9.50413 6.85784 8.41051C7.61491 7.30078 8.82276 6.535 10.1354 6.23968C11.4471 5.94457 12.8117 6.12971 13.8935 6.84836C14.9602 7.55697 15.8384 8.84183 16.0857 10.9224C16.1305 11.2997 16.4505 11.5839 16.8304 11.5839C18.9651 11.5839 20.1411 13.059 20.243 14.67C20.3439 16.2673 19.3754 18.0278 16.9592 18.5072C16.5529 18.5878 16.2889 18.9825 16.3696 19.3888C16.4502 19.7951 16.8449 20.0591 17.2512 19.9785C20.4217 19.3494 21.8873 16.9054 21.74 14.5753C21.6044 12.4313 20.0911 10.4083 17.481 10.1192C17.0934 8.0046 16.0819 6.50128 14.7235 5.59892C13.2498 4.61994 11.4535 4.40564 9.80614 4.77626C8.15968 5.14669 6.61021 6.11183 5.61872 7.56518C4.71414 8.89116 4.29934 10.5877 4.6624 12.5229C2.87889 13.4046 2.07016 14.9155 2.28275 16.4601C2.50961 18.1083 3.87365 19.5303 5.83772 19.9657C6.24211 20.0554 6.64262 19.8002 6.73228 19.3958C6.82193 18.9914 6.56679 18.5909 6.16239 18.5013C4.71605 18.1806 3.89754 17.1913 3.76874 16.2556C3.64853 15.3822 4.10259 14.2949 5.79315 13.6674C6.15635 13.5325 6.3571 13.1432 6.25632 12.7692Z" fill="white"/>
<path d="M14.5304 13.725C14.2375 13.4321 13.7626 13.4321 13.4697 13.725L11.4697 15.725C11.1768 16.0179 11.1768 16.4928 11.4697 16.7857C11.7626 17.0786 12.2375 17.0786 12.5304 16.7857L13.2501 16.066V18.2553C13.2501 18.6696 13.5858 19.0053 14.0001 19.0053C14.4143 19.0053 14.7501 18.6696 14.7501 18.2553V16.066L15.4697 16.7857C15.7626 17.0786 16.2375 17.0786 16.5304 16.7857C16.8233 16.4928 16.8233 16.0179 16.5304 15.725L14.5304 13.725Z" fill="white"/>
<path d="M10.7501 17.6098C10.7501 17.1956 10.4143 16.8598 10.0001 16.8598C9.58584 16.8598 9.25005 17.1956 9.25005 17.6098V19.7992L8.53039 19.0795C8.23749 18.7866 7.76262 18.7866 7.46972 19.0795C7.17683 19.3724 7.17683 19.8473 7.46972 20.1402L9.46972 22.1402C9.76262 22.4331 10.2375 22.4331 10.5304 22.1402L12.5304 20.1402C12.8233 19.8473 12.8233 19.3724 12.5304 19.0795C12.2375 18.7866 11.7626 18.7866 11.4697 19.0795L10.7501 19.7992V17.6098Z" fill="white"/>
</svg>
