<svg width="24" height="25" viewBox="0 0 24 25" fill="none" xmlns="http://www.w3.org/2000/svg">
<path fill-rule="evenodd" clip-rule="evenodd" d="M9.73408 12.8666C9.48192 12.1851 8.51808 12.1851 8.26592 12.8666L7.91686 13.8099C7.83758 14.0241 7.66866 14.193 7.45441 14.2723L6.51109 14.6214C5.82964 14.8735 5.82964 15.8374 6.51109 16.0896L7.45441 16.4386C7.66866 16.5179 7.83758 16.6868 7.91686 16.9011L8.26592 17.8444C8.51808 18.5258 9.48192 18.5258 9.73408 17.8444L10.0831 16.9011C10.1624 16.6868 10.3313 16.5179 10.5456 16.4386L11.4889 16.0896C12.1704 15.8374 12.1704 14.8735 11.4889 14.6214L10.5456 14.2723C10.3313 14.193 10.1624 14.0241 10.0831 13.8099L9.73408 12.8666ZM9 14.9198C8.87513 15.084 8.72853 15.2306 8.56429 15.3555C8.72853 15.4803 8.87513 15.6269 9 15.7912C9.12487 15.6269 9.27147 15.4803 9.43571 15.3555C9.27147 15.2306 9.12487 15.084 9 14.9198Z" fill="white"/>
<path fill-rule="evenodd" clip-rule="evenodd" d="M14.9171 16.3553C14.9308 16.3554 14.9445 16.3555 14.9583 16.3555C18.295 16.3555 21 13.6692 21 10.3555C21 7.04176 18.295 4.35547 14.9583 4.35547C11.9646 4.35547 9.47948 6.51776 9.00009 9.35547C9.00006 9.35547 9.00013 9.35547 9.00009 9.35547C5.68639 9.35547 3 12.0418 3 15.3555C3 18.6692 5.68629 21.3555 9 21.3555C11.973 21.3555 14.441 19.1931 14.9171 16.3553ZM14.9795 14.8554C17.4723 14.8441 19.4896 12.8337 19.4896 10.3555C19.4896 7.87019 17.4608 5.85547 14.9583 5.85547C12.7345 5.85547 10.8848 7.44633 10.5004 9.54459C12.9322 10.1706 14.7672 12.283 14.9795 14.8554ZM9 19.8555C11.4853 19.8555 13.5 17.8407 13.5 15.3555C13.5 12.8702 11.4853 10.8555 9 10.8555C6.51472 10.8555 4.5 12.8702 4.5 15.3555C4.5 17.8407 6.51472 19.8555 9 19.8555Z" fill="white"/>
</svg>
