<svg width="28" height="28" viewBox="0 0 28 28" fill="none" xmlns="http://www.w3.org/2000/svg">
<path fill-rule="evenodd" clip-rule="evenodd" d="M3.54649 12.9685C3.37871 13.5475 3.37871 14.1635 3.54649 14.7425C4.90458 19.4292 9.22882 22.8555 14.3533 22.8555C19.4778 22.8555 23.8021 19.4292 25.1601 14.7425C25.3279 14.1635 25.3279 13.5475 25.1601 12.9685C23.8021 8.28177 19.4778 4.85547 14.3533 4.85547C9.22882 4.85547 4.90458 8.28177 3.54649 12.9685ZM14.3556 18.3555C16.8409 18.3555 18.8556 16.3407 18.8556 13.8555C18.8556 11.3702 16.8409 9.35547 14.3556 9.35547C11.8703 9.35547 9.85562 11.3702 9.85562 13.8555C9.85562 16.3407 11.8703 18.3555 14.3556 18.3555Z" fill="white" fill-opacity="0.6"/>
</svg>
