<svg width="28" height="28" viewBox="0 0 28 28" fill="none" xmlns="http://www.w3.org/2000/svg">
<path fill-rule="evenodd" clip-rule="evenodd" d="M25.4277 13.6777C25.4277 9.47196 25.4277 7.36908 24.5234 5.80273C23.931 4.7766 23.0789 3.9245 22.0527 3.33206C20.4864 2.42773 18.3835 2.42773 14.1777 2.42773C9.97196 2.42773 7.86908 2.42773 6.30273 3.33206C5.2766 3.9245 4.4245 4.7766 3.83206 5.80273C2.92773 7.36908 2.92773 9.47196 2.92773 13.6777C2.92773 17.8835 2.92773 19.9864 3.83206 21.5527C4.4245 22.5789 5.2766 23.431 6.30273 24.0234C7.86908 24.9277 9.97196 24.9277 14.1777 24.9277C18.3835 24.9277 20.4864 24.9277 22.0527 24.0234C23.0789 23.431 23.931 22.5789 24.5234 21.5527C25.4277 19.9864 25.4277 17.8835 25.4277 13.6777ZM6.02148 9.17773C6.02148 7.15844 7.65844 5.52148 9.67773 5.52148H11.9277C12.3937 5.52148 12.7715 5.14372 12.7715 4.67773C12.7715 4.21174 12.3937 3.83398 11.9277 3.83398H9.67773C6.72646 3.83398 4.33398 6.22646 4.33398 9.17773V11.4277C4.33398 11.8937 4.71174 12.2715 5.17773 12.2715C5.64372 12.2715 6.02148 11.8937 6.02148 11.4277V9.17773ZM5.17773 15.084C5.64372 15.084 6.02148 15.4617 6.02148 15.9277V18.1777C6.02148 20.197 7.65844 21.834 9.67773 21.834H11.9277C12.3937 21.834 12.7715 22.2117 12.7715 22.6777C12.7715 23.1437 12.3937 23.5215 11.9277 23.5215H9.67773C6.72646 23.5215 4.33398 21.129 4.33398 18.1777V15.9277C4.33398 15.4617 4.71174 15.084 5.17773 15.084ZM23.1777 15.084C23.6437 15.084 24.0215 15.4617 24.0215 15.9277V18.1777C24.0215 21.129 21.629 23.5215 18.6777 23.5215H16.4277C15.9617 23.5215 15.584 23.1437 15.584 22.6777C15.584 22.2117 15.9617 21.834 16.4277 21.834H18.6777C20.697 21.834 22.334 20.197 22.334 18.1777V15.9277C22.334 15.4617 22.7117 15.084 23.1777 15.084ZM16.4277 3.83398C15.9617 3.83398 15.584 4.21174 15.584 4.67773C15.584 5.14372 15.9617 5.52148 16.4277 5.52148H18.6777C20.697 5.52148 22.334 7.15844 22.334 9.17773V11.4277C22.334 11.8937 22.7117 12.2715 23.1777 12.2715C23.6437 12.2715 24.0215 11.8937 24.0215 11.4277V9.17773C24.0215 6.22646 21.629 3.83398 18.6777 3.83398H16.4277ZM12.6745 17.7849C12.4614 17.3795 11.962 17.2173 11.5504 17.4231C11.1336 17.6315 10.9647 18.1383 11.1731 18.5551L11.174 18.5569L11.175 18.5588L11.1771 18.563L11.1821 18.5727L11.1952 18.597C11.2052 18.6153 11.2181 18.6378 11.234 18.664C11.2656 18.7161 11.3095 18.7831 11.367 18.8598C11.4817 19.0127 11.653 19.2072 11.8928 19.3991C12.3832 19.7914 13.129 20.1465 14.1777 20.1465C15.2264 20.1465 15.9722 19.7914 16.4626 19.3991C16.7025 19.2072 16.8738 19.0127 16.9885 18.8598C17.046 18.7831 17.0898 18.7161 17.1215 18.664C17.1374 18.6378 17.1502 18.6153 17.1603 18.597L17.1734 18.5727L17.1784 18.563L17.1805 18.5588L17.1815 18.5569C17.1815 18.5569 17.1824 18.5551 17.1805 18.5588L17.1824 18.5551C17.3908 18.1383 17.2219 17.6315 16.8051 17.4231C16.3935 17.2173 15.8941 17.3795 15.681 17.7849L15.679 17.7882C15.6734 17.7975 15.6601 17.8184 15.6385 17.8473C15.595 17.9053 15.5202 17.992 15.4085 18.0814C15.1957 18.2516 14.8165 18.459 14.1777 18.459C13.5389 18.459 13.1597 18.2516 12.947 18.0814C12.8353 17.992 12.7605 17.9053 12.717 17.8473C12.6954 17.8184 12.6821 17.7975 12.6764 17.7882L12.6745 17.7849ZM10.8027 11.4277C11.4241 11.4277 11.9277 10.9241 11.9277 10.3027C11.9277 9.68141 11.4241 9.17773 10.8027 9.17773C10.1814 9.17773 9.67773 9.68141 9.67773 10.3027C9.67773 10.9241 10.1814 11.4277 10.8027 11.4277ZM18.6777 10.3027C18.6777 10.9241 18.1741 11.4277 17.5527 11.4277C16.9314 11.4277 16.4277 10.9241 16.4277 10.3027C16.4277 9.68141 16.9314 9.17773 17.5527 9.17773C18.1741 9.17773 18.6777 9.68141 18.6777 10.3027ZM14.9782 12.8484C14.8308 12.4063 14.353 12.1674 13.9109 12.3148C13.4688 12.4621 13.2299 12.94 13.3773 13.3821L13.6354 14.1564C13.4511 14.3111 13.334 14.5433 13.334 14.8027C13.334 15.2687 13.7117 15.6465 14.1777 15.6465H14.7402C15.0115 15.6465 15.2661 15.5161 15.4247 15.2961C15.5833 15.0761 15.6265 14.7932 15.5407 14.5359L14.9782 12.8484Z" fill="white" fill-opacity="0.6"/>
</svg>
