<svg width="26" height="23" viewBox="0 0 26 23" fill="none" xmlns="http://www.w3.org/2000/svg">
<path d="M24.432 8.20777C22.1447 6.26353 18.3705 3.86182 13.224 3.86182C12.8809 3.86182 12.5378 3.86182 12.0803 3.86182C11.6229 3.86182 11.2798 4.20492 11.051 4.54802C10.8223 4.89112 11.051 5.46296 11.2798 5.80606L20.8866 15.4129C21.1154 15.6416 21.3441 15.756 21.6872 15.756C21.9159 15.756 22.1447 15.6416 22.259 15.5273C22.9452 15.0698 23.5171 14.6123 24.2033 14.0405C25.1182 13.3543 25.5757 12.2106 25.5757 11.067C25.8044 10.0376 25.3469 9.00834 24.432 8.20777Z" fill="white" fill-opacity="0.6"/>
<path d="M19.2854 15.642L8.76363 5.23457L4.41767 0.774254C3.9602 0.316785 3.274 0.316785 2.81653 0.774254C2.35906 1.23172 2.35906 1.91793 2.81653 2.37539L6.01881 5.57768C4.53204 6.26388 3.274 7.17882 2.01596 8.20812C1.10102 9.00869 0.643555 10.038 0.643555 11.296C0.643555 12.4397 1.10102 13.5834 2.01596 14.2696C4.30331 16.2138 8.07742 18.6155 13.2239 18.6155C14.9395 18.6155 16.5406 18.3868 18.1417 17.815L22.1446 21.8178C22.3733 22.0466 22.7164 22.1609 22.9452 22.1609C23.2883 22.1609 23.517 22.0466 23.7457 21.8178C24.2032 21.3604 24.2032 20.6741 23.7457 20.2167L19.2854 15.642ZM13.2239 13.9265C11.7372 13.9265 10.5935 12.7828 10.5935 11.296C10.5935 10.9529 10.5935 10.7242 10.7079 10.3811L14.0245 13.6977C13.7958 13.8121 13.567 13.9265 13.2239 13.9265Z" fill="white" fill-opacity="0.6"/>
</svg>
