<?xml version="1.0" standalone="no"?>
<!DOCTYPE svg PUBLIC "-//W3C//DTD SVG 20010904//EN"
 "http://www.w3.org/TR/2001/REC-SVG-20010904/DTD/svg10.dtd">
<svg version="1.0" xmlns="http://www.w3.org/2000/svg"
 width="1600.000000pt" height="837.000000pt" viewBox="0 0 1600.000000 837.000000"
 preserveAspectRatio="xMidYMid meet">

<g transform="translate(0.000000,837.000000) scale(0.100000,-0.100000)"
fill="#FFFFFF" stroke="none">
<path d="M9131 5808 c-166 -11 -520 -63 -534 -77 -9 -9 -12 -360 -12 -1384 l0
-1372 60 0 60 0 3 1311 2 1312 23 5 c74 19 333 47 522 57 224 12 456 4 600
-21 132 -23 297 -89 405 -162 70 -47 184 -169 232 -249 117 -193 152 -336 177
-723 10 -154 23 -186 126 -309 80 -96 85 -105 85 -151 0 -41 -29 -75 -109
-128 -64 -44 -97 -111 -106 -215 -5 -70 -13 -98 -38 -142 -87 -156 -87 -157
-87 -251 0 -98 -11 -131 -47 -148 -16 -7 -133 -11 -352 -11 -205 0 -339 -4
-358 -11 -42 -14 -169 -165 -147 -173 37 -14 110 -5 153 19 l43 25 337 0 c332
0 337 0 387 24 99 46 134 119 134 278 0 73 3 84 30 125 57 84 72 125 86 230 7
56 18 110 25 120 6 10 39 37 75 60 79 53 113 103 121 174 8 83 -9 124 -93 229
-98 123 -114 154 -114 228 0 88 -28 367 -46 452 -27 132 -91 294 -156 395
-107 166 -288 312 -482 390 -228 90 -583 123 -1005 93z"/>
<path d="M6543 5705 c-609 -95 -1083 -579 -1178 -1200 -22 -144 -22 -386 0
-525 99 -616 573 -1097 1180 -1195 105 -17 365 -20 451 -4 249 44 441 123 626
256 99 71 268 244 332 341 111 167 197 378 232 569 36 196 29 472 -16 669
-133 574 -593 1002 -1172 1089 -117 18 -340 17 -455 0z m448 -291 c348 -60
639 -292 799 -637 78 -169 110 -324 110 -532 0 -353 -115 -641 -349 -876 -181
-181 -408 -286 -666 -307 -549 -46 -1007 265 -1172 794 -45 141 -57 228 -57
394 1 353 117 638 358 875 107 106 191 163 324 221 73 31 197 67 267 77 80 11
298 6 386 -9z"/>
<path d="M2890 4245 l0 -1435 155 0 155 0 0 435 0 436 142 162 c79 89 147 167
153 173 5 6 48 54 95 107 66 74 88 93 97 84 6 -7 63 -86 125 -177 63 -91 145
-210 183 -265 283 -409 540 -780 577 -833 23 -35 54 -77 66 -93 l24 -29 180 0
180 0 -23 38 c-12 20 -45 69 -73 109 -28 39 -112 161 -186 269 -74 109 -171
250 -214 314 -158 230 -471 688 -552 807 l-84 121 158 178 c86 98 290 329 453
515 162 185 330 375 372 421 42 47 77 88 77 92 0 3 -85 6 -188 6 l-188 0 -131
-147 c-204 -232 -274 -311 -503 -573 -118 -135 -220 -249 -226 -255 -6 -5 -64
-71 -129 -145 -64 -74 -176 -202 -249 -285 l-131 -150 -5 775 -5 775 -152 3
-153 3 0 -1436z"/>
<path d="M12073 5668 c-6 -7 -33 -76 -61 -153 -28 -77 -81 -221 -117 -320 -37
-99 -71 -191 -75 -205 -4 -14 -47 -131 -94 -260 -48 -129 -152 -413 -231 -630
-79 -217 -216 -593 -304 -835 -89 -242 -161 -443 -161 -447 0 -5 71 -8 159 -8
l158 0 21 58 c48 132 138 386 178 500 24 68 46 127 49 133 4 5 257 9 645 9
598 0 638 -1 645 -17 4 -10 25 -70 47 -133 70 -204 170 -484 184 -517 l13 -33
155 0 c131 0 156 2 156 15 0 8 -12 45 -26 82 -22 58 -175 475 -289 788 -18 50
-69 189 -113 310 -44 121 -141 389 -216 595 -75 206 -145 398 -156 425 -10 28
-47 127 -81 220 -34 94 -77 213 -96 265 -19 52 -40 111 -46 130 l-12 35 -161
3 c-121 2 -164 -1 -171 -10z m220 -513 c25 -71 83 -238 130 -370 47 -132 142
-400 211 -595 68 -195 128 -363 131 -372 7 -17 -22 -18 -529 -18 -295 0 -536
2 -536 4 0 2 34 100 76 217 42 118 96 270 120 339 25 69 58 161 74 205 15 44
67 190 115 325 127 358 147 412 156 403 4 -4 28 -66 52 -138z"/>
<path d="M9606 5264 c-9 -8 -17 -23 -18 -32 -1 -9 -2 -26 -3 -37 -1 -11 -3
-95 -4 -187 l-1 -168 -94 0 -94 0 -127 160 c-79 100 -133 160 -145 160 -32 0
-64 -34 -57 -61 4 -13 56 -86 117 -163 93 -117 109 -142 104 -165 -15 -65 -6
-61 -128 -61 -121 0 -136 -6 -136 -50 0 -42 17 -50 111 -50 47 0 101 -3 118
-6 l31 -6 0 -109 0 -109 -113 0 c-126 0 -149 -9 -149 -55 0 -46 23 -55 144
-55 78 0 110 -4 112 -12 3 -7 7 -42 9 -78 l5 -65 -114 -125 c-75 -82 -114
-132 -114 -147 0 -30 44 -59 69 -47 11 5 70 65 133 134 63 69 125 131 139 139
19 10 45 12 112 6 l87 -7 0 -192 c0 -208 6 -236 55 -236 51 0 55 15 55 230 l0
199 53 6 c28 4 70 5 92 3 39 -3 42 -5 146 -158 59 -85 116 -160 127 -168 15
-10 25 -10 46 -1 53 24 45 46 -72 211 l-110 154 7 79 6 80 115 5 c63 3 120 8
126 12 21 14 23 48 4 71 -17 20 -28 22 -134 25 l-117 4 3 96 3 97 114 5 c96 5
115 9 127 25 18 24 18 36 0 61 -12 16 -31 20 -128 24 l-113 5 -6 40 c-7 39 -4
44 102 185 60 80 112 156 116 169 4 18 0 28 -18 42 -49 38 -44 43 -216 -191
l-78 -105 -100 0 -100 0 -3 200 c-2 190 -3 201 -23 218 -26 21 -53 22 -73 1z
m279 -804 l0 -265 -245 0 -245 0 -3 255 c-1 140 0 260 3 268 3 10 57 12 247
10 l243 -3 0 -265z"/>
<path d="M9492 4458 l3 -173 148 -3 147 -3 0 176 0 175 -150 0 -150 0 2 -172z"/>
</g>
</svg>
