<svg width="28" height="28" viewBox="0 0 28 28" fill="none" xmlns="http://www.w3.org/2000/svg">
<path d="M7.33936 3.46387H20.8394C23.3246 3.46387 25.3394 5.47859 25.3394 7.96387V16.9639C25.3394 19.4491 23.3246 21.4639 20.8394 21.4639H7.33936C4.85407 21.4639 2.83936 19.4491 2.83936 16.9639V7.96387C2.83936 5.47859 4.85407 3.46387 7.33936 3.46387Z" fill="white" fill-opacity="0.6"/>
<path d="M3.96436 21.7451C3.49837 21.7451 3.12061 22.1229 3.12061 22.5889C3.12061 23.0549 3.49837 23.4326 3.96436 23.4326H24.2144C24.6803 23.4326 25.0581 23.0549 25.0581 22.5889C25.0581 22.1229 24.6803 21.7451 24.2144 21.7451H3.96436Z" fill="white" fill-opacity="0.6"/>
</svg>
