<svg width="1503" height="1503" viewBox="0 0 1503 1503" fill="none" xmlns="http://www.w3.org/2000/svg">
<g opacity="0.1">
<line x1="0" y1="0" x2="1503" y2="0" stroke="#fff" stroke-width="1"/>
<line x1="0" y1="100" x2="1503" y2="100" stroke="#fff" stroke-width="1"/>
<line x1="0" y1="200" x2="1503" y2="200" stroke="#fff" stroke-width="1"/>
<line x1="0" y1="300" x2="1503" y2="300" stroke="#fff" stroke-width="1"/>
<line x1="0" y1="400" x2="1503" y2="400" stroke="#fff" stroke-width="1"/>
<line x1="0" y1="500" x2="1503" y2="500" stroke="#fff" stroke-width="1"/>
<line x1="0" y1="600" x2="1503" y2="600" stroke="#fff" stroke-width="1"/>
<line x1="0" y1="700" x2="1503" y2="700" stroke="#fff" stroke-width="1"/>
<line x1="0" y1="800" x2="1503" y2="800" stroke="#fff" stroke-width="1"/>
<line x1="0" y1="900" x2="1503" y2="900" stroke="#fff" stroke-width="1"/>
<line x1="0" y1="1000" x2="1503" y2="1000" stroke="#fff" stroke-width="1"/>
<line x1="0" y1="1100" x2="1503" y2="1100" stroke="#fff" stroke-width="1"/>
<line x1="0" y1="1200" x2="1503" y2="1200" stroke="#fff" stroke-width="1"/>
<line x1="0" y1="1300" x2="1503" y2="1300" stroke="#fff" stroke-width="1"/>
<line x1="0" y1="1400" x2="1503" y2="1400" stroke="#fff" stroke-width="1"/>
<line x1="0" y1="1503" x2="1503" y2="1503" stroke="#fff" stroke-width="1"/>
</g>
</svg>