<svg width="28" height="28" viewBox="0 0 28 28" fill="none" xmlns="http://www.w3.org/2000/svg">
<path fill-rule="evenodd" clip-rule="evenodd" d="M8.65625 9.17773V6.92773C8.65625 3.97646 11.0487 1.58398 14 1.58398C16.9513 1.58398 19.3438 3.97646 19.3438 6.92773V9.17773H19.625C22.1103 9.17773 24.125 11.1925 24.125 13.6777V20.4277C24.125 22.913 22.1103 24.9277 19.625 24.9277H8.375C5.88972 24.9277 3.875 22.913 3.875 20.4277V13.6777C3.875 11.1925 5.88972 9.17773 8.375 9.17773H8.65625ZM10.3438 6.92773C10.3438 4.90844 11.9807 3.27148 14 3.27148C16.0193 3.27148 17.6562 4.90844 17.6562 6.92773V9.17773H10.3438V6.92773ZM15.125 15.9277C15.125 16.213 15.0188 16.4736 14.8438 16.6719V20.4277C14.8438 20.8937 14.466 21.2715 14 21.2715C13.534 21.2715 13.1562 20.8937 13.1562 20.4277V16.6719C12.9812 16.4736 12.875 16.213 12.875 15.9277C12.875 15.3064 13.3787 14.8027 14 14.8027C14.6213 14.8027 15.125 15.3064 15.125 15.9277Z" fill="white" fill-opacity="0.6"/>
</svg>
