<svg width="28" height="27" viewBox="0 0 28 27" fill="none" xmlns="http://www.w3.org/2000/svg">
<path d="M7.25 5.32362C6.62868 4.24746 6.9974 2.87138 8.07356 2.25006C9.14972 1.62874 10.5258 1.99746 11.1471 3.07362L11.6546 3.95266L8.17865 6.93208L7.25 5.32362Z" fill="white" fill-opacity="0.6"/>
<path d="M9.03705 8.41888L12.513 5.43946L21.2721 20.6106C21.8934 21.6868 21.5247 23.0629 20.4486 23.6842C19.3724 24.3055 17.9963 23.9368 17.375 22.8606L9.03705 8.41888Z" fill="white" fill-opacity="0.6"/>
<path d="M18.2008 2.82507C17.9172 2.05843 16.8328 2.05843 16.5492 2.82507L16.1565 3.8863C16.0673 4.12733 15.8772 4.31737 15.6362 4.40656L14.575 4.79925C13.8083 5.08293 13.8083 6.16725 14.575 6.45094L15.6362 6.84363C15.8772 6.93282 16.0673 7.12285 16.1565 7.36388L16.5492 8.42511C16.8328 9.19175 17.9172 9.19175 18.2008 8.42511L18.5935 7.36388C18.6827 7.12285 18.8728 6.93282 19.1138 6.84363L20.175 6.45094C20.9417 6.16725 20.9417 5.08293 20.175 4.79925L19.1138 4.40656C18.8728 4.31737 18.6827 4.12733 18.5935 3.8863L18.2008 2.82507Z" fill="white" fill-opacity="0.6"/>
<path d="M6.95084 8.45007C6.66716 7.68343 5.58284 7.68343 5.29916 8.45007L4.90647 9.5113C4.81728 9.75233 4.62724 9.94237 4.38621 10.0316L3.32498 10.4242C2.55834 10.7079 2.55834 11.7923 3.32498 12.0759L4.38621 12.4686C4.62724 12.5578 4.81728 12.7479 4.90647 12.9889L5.29916 14.0501C5.58284 14.8168 6.66716 14.8168 6.95084 14.0501L7.34354 12.9889C7.43272 12.7479 7.62276 12.5578 7.86379 12.4686L8.92502 12.0759C9.69166 11.7923 9.69166 10.7079 8.92502 10.4242L7.86379 10.0316C7.62276 9.94237 7.43272 9.75233 7.34354 9.5113L6.95084 8.45007Z" fill="white" fill-opacity="0.6"/>
<path d="M21.0492 10.7001C21.3328 9.93343 22.4172 9.93343 22.7008 10.7001L23.0935 11.7613C23.1827 12.0023 23.3728 12.1924 23.6138 12.2816L24.675 12.6742C25.4417 12.9579 25.4417 14.0423 24.675 14.3259L23.6138 14.7186C23.3728 14.8078 23.1827 14.9979 23.0935 15.2389L22.7008 16.3001C22.4172 17.0668 21.3328 17.0668 21.0492 16.3001L20.6565 15.2389C20.5673 14.9979 20.3772 14.8078 20.1362 14.7186L19.075 14.3259C18.3083 14.0423 18.3083 12.9579 19.075 12.6742L20.1362 12.2816C20.3772 12.1924 20.5673 12.0023 20.6565 11.7613L21.0492 10.7001Z" fill="white" fill-opacity="0.6"/>
</svg>
