<svg width="29" height="28" viewBox="0 0 29 28" fill="none" xmlns="http://www.w3.org/2000/svg">
<path d="M25.0139 16.2783H23.8556H21.1915C20.6123 16.2783 20.0332 16.6131 19.8015 17.0594C18.759 18.8446 16.7899 19.9604 14.7049 19.9604C12.6199 19.9604 10.6508 18.8446 9.60828 17.0594C9.37662 16.6131 8.79746 16.2783 8.2183 16.2783H5.3225H4.16418H3.23752C3.12169 16.2783 3.12169 16.2783 3.00586 16.2783V20.6299C3.00586 23.3077 5.20667 25.4277 7.98663 25.4277H21.3073C24.0873 25.4277 26.2881 23.3077 26.2881 20.6299V16.2783C26.1723 16.2783 26.1723 16.2783 26.0564 16.2783H25.0139Z" fill="white" fill-opacity="0.6"/>
<path d="M21.2824 2.5542H8.01154C5.21767 2.5542 3.00586 4.69425 3.00586 7.39748V13.705C3.12227 13.705 3.12227 13.705 3.23868 13.705H4.16997H5.33408H8.01154C9.52488 13.705 10.8054 14.3808 11.5039 15.6198C12.0859 16.7461 13.3664 17.4219 14.647 17.4219C15.9275 17.4219 17.208 16.7461 17.7901 15.6198C18.4885 14.4934 19.7691 13.705 21.2824 13.705H23.9599H25.124H26.0553C26.1717 13.705 26.1717 13.705 26.2881 13.705V7.39748C26.2881 4.69425 24.0763 2.5542 21.2824 2.5542Z" fill="white" fill-opacity="0.6"/>
</svg>
