<svg width="28" height="28" viewBox="0 0 28 28" fill="none" xmlns="http://www.w3.org/2000/svg">
<path fill-rule="evenodd" clip-rule="evenodd" d="M14.9344 3.36035C9.39344 3.36035 4.8999 7.84699 4.8999 13.3837V13.4264L5.27886 17.1597C5.27634 17.1838 5.27158 17.2202 5.26269 17.2672C5.24056 17.384 5.19323 17.5637 5.09243 17.7781C4.89568 18.1966 4.47635 18.7885 3.55198 19.3076C3.33582 19.4289 3.10794 19.6399 3.0073 19.9651C2.9068 20.2899 2.97485 20.5938 3.08451 20.8196C3.28439 21.2312 3.69041 21.5433 4.11506 21.7814C5.00789 22.2819 6.52407 22.7507 8.80833 23.0382L10.4079 23.3339L11.115 23.5811C17.8844 25.9475 24.9688 20.9296 24.9688 13.7627V13.3837C24.9688 7.84699 20.4753 3.36035 14.9344 3.36035ZM13.858 11.8941C14.0712 11.3609 14.7602 11.2195 15.1662 11.6256C15.5522 12.0116 15.4466 12.6624 14.9583 12.9066L14.6292 13.0711C13.7266 13.5224 13.1565 14.4448 13.1565 15.4539C13.1565 15.9199 13.5343 16.2977 14.0003 16.2977C14.4663 16.2977 14.844 15.9199 14.844 15.4539C14.844 15.084 15.053 14.7459 15.3839 14.5805L15.713 14.4159C17.2315 13.6566 17.5599 11.6328 16.3594 10.4323C15.0967 9.16963 12.9544 9.60937 12.2912 11.2674L12.0919 11.7655C11.9188 12.1982 12.1293 12.6892 12.5619 12.8623C12.9946 13.0354 13.4856 12.8249 13.6587 12.3923L13.858 11.8941ZM14.0003 16.8603C14.4663 16.8603 14.844 17.2381 14.844 17.7041V17.7603C14.844 18.2263 14.4663 18.6041 14.0003 18.6041C13.5343 18.6041 13.1565 18.2263 13.1565 17.7603V17.7041C13.1565 17.2381 13.5343 16.8603 14.0003 16.8603Z" fill="white" fill-opacity="0.6"/>
</svg>
