<svg width="24" height="25" viewBox="0 0 24 25" fill="none" xmlns="http://www.w3.org/2000/svg">
<path d="M7 3.60547C4.37665 3.60547 2.25 5.73212 2.25 8.35547V13.3443C2.25 15.4215 3.93393 17.1055 6.01117 17.1055C6.56978 17.1055 7.10861 17.3122 7.52381 17.6859L8 18.1145V16.1743C7.40694 15.8048 6.71859 15.6055 6.01117 15.6055C4.76236 15.6055 3.75 14.5931 3.75 13.3443V8.35547C3.75 6.56054 5.20507 5.10547 7 5.10547H14C15.7949 5.10547 17.25 6.56054 17.25 8.35547V9.35547H18.75V8.35547C18.75 5.73212 16.6234 3.60547 14 3.60547H7Z" fill="white"/>
<path d="M12 16.3555C12.4142 16.3555 12.75 16.0197 12.75 15.6055C12.75 15.1913 12.4142 14.8555 12 14.8555C11.5858 14.8555 11.25 15.1913 11.25 15.6055C11.25 16.0197 11.5858 16.3555 12 16.3555Z" fill="white"/>
<path d="M15.75 15.6055C15.75 16.0197 15.4142 16.3555 15 16.3555C14.5858 16.3555 14.25 16.0197 14.25 15.6055C14.25 15.1913 14.5858 14.8555 15 14.8555C15.4142 14.8555 15.75 15.1913 15.75 15.6055Z" fill="white"/>
<path d="M18 16.3555C18.4142 16.3555 18.75 16.0197 18.75 15.6055C18.75 15.1913 18.4142 14.8555 18 14.8555C17.5858 14.8555 17.25 15.1913 17.25 15.6055C17.25 16.0197 17.5858 16.3555 18 16.3555Z" fill="white"/>
<path fill-rule="evenodd" clip-rule="evenodd" d="M8.25 12.3555C8.25 10.8367 9.48122 9.60547 11 9.60547H19C20.5188 9.60547 21.75 10.8367 21.75 12.3555V17.5465C21.75 19.2912 20.3357 20.7055 18.5911 20.7055C18.1812 20.7055 17.7859 20.8572 17.4813 21.1313L16.8397 21.7088C15.7938 22.6501 14.2062 22.6501 13.1603 21.7088L12.5187 21.1313C12.2141 20.8572 11.8188 20.7055 11.4089 20.7055C9.6643 20.7055 8.25 19.2912 8.25 17.5465V12.3555ZM11 11.1055C10.3096 11.1055 9.75 11.6651 9.75 12.3555V17.5465C9.75 18.4627 10.4927 19.2055 11.4089 19.2055C12.1893 19.2055 12.9421 19.4943 13.5222 20.0164L14.1638 20.5939C14.6392 21.0217 15.3608 21.0217 15.8362 20.5939L16.4778 20.0164C17.0579 19.4943 17.8107 19.2055 18.5911 19.2055C19.5073 19.2055 20.25 18.4627 20.25 17.5465V12.3555C20.25 11.6651 19.6904 11.1055 19 11.1055H11Z" fill="white"/>
</svg>
