<svg width="28" height="28" viewBox="0 0 28 28" fill="none" xmlns="http://www.w3.org/2000/svg">
<path d="M21.8032 6.21338H19.8589H8.42222H6.47797C4.41937 6.21338 2.70386 7.92889 2.70386 9.9875V17.6501C2.70386 19.7087 4.41937 21.4242 6.47797 21.4242V20.5093V19.5943V15.8202C6.47797 14.7909 7.39291 13.876 8.42222 13.876H19.8589C20.8882 13.876 21.8032 14.6766 21.8032 15.8202V19.5943V20.5093V21.4242C23.8618 21.4242 25.5773 19.7087 25.5773 17.6501V9.9875C25.5773 7.92889 23.8618 6.21338 21.8032 6.21338Z" fill="white" fill-opacity="0.6"/>
<path d="M19.8588 3.3544C19.8588 2.21073 18.9439 1.41016 17.9146 1.41016H10.3664C9.33706 1.41016 8.42212 2.21073 8.42212 3.3544V4.26934H19.8588V3.3544Z" fill="white" fill-opacity="0.6"/>
<path d="M8.42212 19.4802V20.3951V21.31V23.2543C8.42212 24.8554 9.68016 26.1135 11.2813 26.1135H16.9997C18.6008 26.1135 19.8588 24.8554 19.8588 23.2543V21.31V20.3951V19.4802V15.7061H8.42212V19.4802Z" fill="white" fill-opacity="0.6"/>
<path d="M21.8031 10.9026C22.3084 10.9026 22.7181 10.493 22.7181 9.98769C22.7181 9.48239 22.3084 9.07275 21.8031 9.07275C21.2978 9.07275 20.8882 9.48239 20.8882 9.98769C20.8882 10.493 21.2978 10.9026 21.8031 10.9026Z" fill="#131210"/>
</svg>
