<svg width="29" height="28" viewBox="0 0 29 28" fill="none" xmlns="http://www.w3.org/2000/svg">
<path d="M25.7309 10.8049C25.4185 9.76611 24.4813 8.93511 23.44 8.83124L19.0663 8.20799L17.0878 4.05299C16.5671 2.91036 15.6299 2.28711 14.4844 2.28711C13.3389 2.28711 12.4017 2.91036 11.8811 3.94911L9.9025 8.10411L5.52886 8.83124C4.48751 9.03899 3.5503 9.76611 3.2379 10.8049C2.82136 11.9475 3.13376 13.0901 3.96684 13.9211L7.19501 17.1412L6.46607 21.7117C6.2578 22.8544 6.77847 23.997 7.71568 24.6203C8.23635 24.9319 8.75702 25.1396 9.38183 25.1396C9.9025 25.1396 10.319 25.0358 10.7356 24.828L14.6927 22.6466L18.6498 24.828C19.587 25.3474 20.7325 25.2435 21.6697 24.6203C22.6069 23.997 23.1276 22.8544 22.9193 21.7117L22.1904 17.1412L25.4185 13.9211C25.8351 13.0901 26.1475 11.8436 25.7309 10.8049Z" fill="white" fill-opacity="0.6"/>
</svg>
