<svg width="28" height="27" viewBox="0 0 28 27" fill="none" xmlns="http://www.w3.org/2000/svg">
<path fill-rule="evenodd" clip-rule="evenodd" d="M23.8794 5.625C24.7837 7.19134 24.7837 9.29423 24.7837 13.5C24.7837 17.7058 24.7837 19.8087 23.8794 21.375C23.2869 22.4011 22.4348 23.2532 21.4087 23.8457C19.8423 24.75 17.7395 24.75 13.5337 24.75C9.32792 24.75 7.22503 24.75 5.65869 23.8457C4.63256 23.2532 3.78046 22.4011 3.18802 21.375C2.28369 19.8087 2.28369 17.7058 2.28369 13.5C2.28369 9.29423 2.28369 7.19134 3.18802 5.625C3.78046 4.59887 4.63256 3.74676 5.65869 3.15433C7.22503 2.25 9.32792 2.25 13.5337 2.25C17.7395 2.25 19.8423 2.25 21.4087 3.15433C22.4348 3.74676 23.2869 4.59887 23.8794 5.625ZM2.56494 14.625C2.56494 14.159 2.9427 13.7812 3.40869 13.7812H23.6587C24.1247 13.7812 24.5024 14.159 24.5024 14.625C24.5024 15.091 24.1247 15.4688 23.6587 15.4688H3.40869C2.9427 15.4688 2.56494 15.091 2.56494 14.625ZM5.37744 9C5.37744 6.98071 7.0144 5.34375 9.03369 5.34375H11.2837C11.7497 5.34375 12.1274 4.96599 12.1274 4.5C12.1274 4.03401 11.7497 3.65625 11.2837 3.65625H9.03369C6.08242 3.65625 3.68994 6.04873 3.68994 9V11.25C3.68994 11.716 4.0677 12.0938 4.53369 12.0938C4.99968 12.0938 5.37744 11.716 5.37744 11.25V9ZM3.68994 16.3125V18C3.68994 20.9513 6.08242 23.3438 9.03369 23.3438H11.2837C11.7497 23.3438 12.1274 22.966 12.1274 22.5C12.1274 22.034 11.7497 21.6562 11.2837 21.6562H9.03369C7.0144 21.6562 5.37744 20.0193 5.37744 18V16.3125H3.68994ZM21.6899 16.3125V18C21.6899 20.0193 20.053 21.6562 18.0337 21.6562H15.7837C15.3177 21.6562 14.9399 22.034 14.9399 22.5C14.9399 22.966 15.3177 23.3438 15.7837 23.3438H18.0337C20.985 23.3438 23.3774 20.9513 23.3774 18V16.3125H21.6899ZM15.7837 3.65625C15.3177 3.65625 14.9399 4.03401 14.9399 4.5C14.9399 4.96599 15.3177 5.34375 15.7837 5.34375H18.0337C20.053 5.34375 21.6899 6.98071 21.6899 9V11.25C21.6899 11.716 22.0677 12.0938 22.5337 12.0938C22.9997 12.0938 23.3774 11.716 23.3774 11.25V9C23.3774 6.04873 20.985 3.65625 18.0337 3.65625H15.7837Z" fill="white" fill-opacity="0.6"/>
</svg>
