<svg width="28" height="28" viewBox="0 0 28 28" fill="none" xmlns="http://www.w3.org/2000/svg">
<path fill-rule="evenodd" clip-rule="evenodd" d="M13.2993 2.90156L6.54933 5.43281C5.67115 5.76213 5.08936 6.60147 5.08936 7.53937L5.08936 13.8553C5.08938 17.8587 10.7175 21.8621 13.0724 23.3619C13.7024 23.7632 14.4874 23.7819 15.1324 23.4051C17.5025 22.0207 23.0894 18.2872 23.0894 13.8553V7.53938C23.0894 6.60148 22.5076 5.76213 21.6294 5.43281L14.8794 2.90156C14.37 2.71055 13.8087 2.71055 13.2993 2.90156ZM17.4881 12.2119C17.8232 11.8881 17.8324 11.3539 17.5087 11.0188C17.1849 10.6837 16.6507 10.6744 16.3156 10.9982L13.4109 13.8044L11.8657 12.2988C11.5319 11.9736 10.9977 11.9805 10.6725 12.3143C10.3473 12.6481 10.3543 13.1822 10.688 13.5074L12.8196 15.5844C13.1463 15.9026 13.6667 15.9037 13.9947 15.5869L17.4881 12.2119Z" fill="white" fill-opacity="0.6"/>
</svg>
