<svg width="29" height="28" viewBox="0 0 29 28" fill="none" xmlns="http://www.w3.org/2000/svg">
<path d="M27.4522 12.6694C27.4522 15.6429 24.9738 18.159 21.7873 18.159H15.7682V21.3613L16.9484 20.2176C17.4205 19.7602 18.1286 19.7602 18.6007 20.2176C19.0728 20.6751 19.0728 21.3613 18.6007 21.8188L15.4142 24.9067C15.1781 25.1354 14.9421 25.2498 14.588 25.2498C14.2339 25.2498 13.9979 25.1354 13.7619 24.9067L12.9357 24.1061L11.1654 22.3906L10.6933 21.8188C10.2213 21.3613 10.2213 20.6751 10.6933 20.2176C10.8114 20.1033 10.9294 19.9889 11.1654 19.9889C11.5195 19.8745 11.9916 19.9889 12.3456 20.2176L13.5258 21.3613V11.8688C13.5258 11.1826 12.9357 10.7252 12.3456 10.7252C11.7555 10.7252 11.1654 11.1826 11.1654 11.8688V18.159H7.50678C4.32023 18.0447 1.8418 15.6429 1.8418 12.6694C1.8418 9.69585 4.32023 7.17977 7.50678 7.17977C7.74282 7.17977 7.97886 7.17977 8.09688 7.17977C9.39511 5.00679 11.8735 3.52002 14.588 3.52002C17.3025 3.52002 19.7809 5.00679 21.1972 7.29414C21.4332 7.29414 21.5512 7.29414 21.7873 7.29414C24.9738 7.17977 27.4522 9.69585 27.4522 12.6694Z" fill="white" fill-opacity="0.6"/>
</svg>
