<svg width="24" height="25" viewBox="0 0 24 25" fill="none" xmlns="http://www.w3.org/2000/svg">
<path fill-rule="evenodd" clip-rule="evenodd" d="M16.5 7.85547C16.5 10.3408 14.4853 12.3555 12 12.3555C9.51477 12.3555 7.50005 10.3408 7.50005 7.85547C7.50005 5.37019 9.51477 3.35547 12 3.35547C14.4853 3.35547 16.5 5.37019 16.5 7.85547ZM15 7.85547C15 9.51232 13.6569 10.8555 12 10.8555C10.3432 10.8555 9.00005 9.51232 9.00005 7.85547C9.00005 6.19861 10.3432 4.85547 12 4.85547C13.6569 4.85547 15 6.19861 15 7.85547Z" fill="white"/>
<path fill-rule="evenodd" clip-rule="evenodd" d="M19.2 17.3055C19.2 19.5422 15.9765 21.3555 12 21.3555C8.0236 21.3555 4.80005 19.5422 4.80005 17.3055C4.80005 15.0687 8.0236 13.2555 12 13.2555C15.9765 13.2555 19.2 15.0687 19.2 17.3055ZM17.7 17.3055C17.7 17.6412 17.4423 18.2508 16.3558 18.8619C15.3164 19.4466 13.7794 19.8555 12 19.8555C10.2206 19.8555 8.6837 19.4466 7.64427 18.8619C6.55783 18.2508 6.30005 17.6412 6.30005 17.3055C6.30005 16.9697 6.55783 16.3602 7.64427 15.749C8.6837 15.1644 10.2206 14.7555 12 14.7555C13.7794 14.7555 15.3164 15.1644 16.3558 15.749C17.4423 16.3602 17.7 16.9697 17.7 17.3055Z" fill="white"/>
<path d="M18.5001 7.85546C18.5001 7.41496 18.3577 7.00771 18.1164 6.67726C17.8943 6.37314 17.5885 6.13406 17.2328 5.99395L17.2074 5.98367C17.1621 5.96486 17.1174 5.94369 17.0739 5.9203C17.0279 5.8956 16.9833 5.86842 16.9404 5.83892C16.6878 5.66493 16.5001 5.40999 16.5001 5.10546C16.5001 4.69124 16.8398 4.34711 17.2446 4.43482C18.4433 4.69452 19.4133 5.56834 19.8085 6.71041C19.9326 7.06919 20.0001 7.45445 20.0001 7.85546C20.0001 8.25646 19.9326 8.64172 19.8085 9.0005C19.4133 10.1426 18.4433 11.0164 17.2446 11.2761C16.8398 11.3638 16.5001 11.0197 16.5001 10.6055C16.5001 10.3009 16.6878 10.046 16.9404 9.87199C16.9833 9.84249 17.028 9.81531 17.0739 9.79061C17.1175 9.76722 17.1621 9.74605 17.2074 9.72724L17.2328 9.71697C17.5885 9.57686 17.8943 9.33777 18.1164 9.03365C18.3577 8.7032 18.5001 8.29596 18.5001 7.85546Z" fill="white"/>
<path d="M20.5001 16.8555C20.5001 16.9426 20.4543 17.1397 20.2247 17.3928C20.14 17.4861 20.0303 17.587 19.8888 17.6928C19.8629 17.7122 19.8378 17.7327 19.8138 17.7542C19.7893 17.7762 19.7658 17.7993 19.7435 17.8233C19.5947 17.9839 19.5001 18.1882 19.5001 18.4094C19.5001 18.9817 20.0873 19.3683 20.5632 19.0505C20.6401 18.9991 20.7144 18.9466 20.7859 18.8929L20.8146 18.8711C21.0302 18.7066 21.2202 18.5316 21.3813 18.3478C21.7781 17.8951 22.0001 17.3893 22.0001 16.8555C22.0001 16.3217 21.7781 15.8158 21.3813 15.3631C21.2201 15.1793 21.0302 15.0043 20.8146 14.8398L20.7859 14.8181C20.7144 14.7644 20.6401 14.7118 20.5632 14.6604C20.0873 14.3426 19.5001 14.7293 19.5001 15.3015C19.5001 15.5228 19.5947 15.727 19.7435 15.8876C19.7658 15.9117 19.7893 15.9347 19.8138 15.9567C19.8378 15.9782 19.8629 15.9987 19.8888 16.0181C20.0303 16.1239 20.14 16.2248 20.2247 16.3181C20.4543 16.5712 20.5001 16.7683 20.5001 16.8555Z" fill="white"/>
<path d="M5.5 7.8553C5.5 7.4148 5.64241 7.00756 5.8837 6.67711C6.10577 6.37299 6.4116 6.1339 6.76725 5.9938L6.79265 5.98352C6.83794 5.96471 6.88261 5.94354 6.92615 5.92015C6.97211 5.89545 7.01681 5.86827 7.05964 5.83877C7.31224 5.66477 7.5 5.40984 7.5 5.1053C7.5 4.69109 7.16028 4.34696 6.75545 4.43466C5.55671 4.69436 4.58681 5.56818 4.19159 6.71026C4.06744 7.06904 4 7.4543 4 7.8553C4 8.25631 4.06744 8.64157 4.19159 9.00035C4.58681 10.1424 5.55671 11.0162 6.75545 11.2759C7.16028 11.3636 7.5 11.0195 7.5 10.6053C7.5 10.3008 7.31224 10.0458 7.05964 9.87184C7.01681 9.84234 6.97211 9.81516 6.92615 9.79046C6.88261 9.76707 6.83793 9.7459 6.79263 9.72708L6.76725 9.71681C6.4116 9.5767 6.10577 9.33762 5.8837 9.0335C5.64241 8.70305 5.5 8.29581 5.5 7.8553Z" fill="white"/>
<path d="M3.5 16.8553C3.5 16.9425 3.5458 17.1396 3.77541 17.3926C3.86007 17.4859 3.96971 17.5868 4.11126 17.6927C4.1372 17.712 4.16224 17.7325 4.18625 17.7541C4.2108 17.7761 4.23429 17.7991 4.25655 17.8232C4.40532 17.9838 4.5 18.188 4.5 18.4093C4.5 18.9815 3.91272 19.3682 3.43687 19.0503C3.35997 18.999 3.2857 18.9464 3.21419 18.8927L3.18549 18.871C2.96985 18.7064 2.7799 18.5314 2.61879 18.3477C2.22192 17.895 2 17.3891 2 16.8553C2 16.3215 2.22193 15.8156 2.6188 15.3629C2.77992 15.1792 2.96986 15.0042 3.18549 14.8396L3.21419 14.8179C3.2857 14.7642 3.35997 14.7117 3.43687 14.6603C3.91272 14.3424 4.5 14.7291 4.5 15.3013C4.5 15.5226 4.40532 15.7268 4.25655 15.8875C4.23429 15.9115 4.2108 15.9346 4.18625 15.9566C4.16224 15.9781 4.1372 15.9986 4.11126 16.018C3.96971 16.1238 3.86007 16.2247 3.77541 16.318C3.5458 16.571 3.5 16.7681 3.5 16.8553Z" fill="white"/>
</svg>
