<svg width="24" height="25" viewBox="0 0 24 25" fill="none" xmlns="http://www.w3.org/2000/svg">
<path fill-rule="evenodd" clip-rule="evenodd" d="M17 7.35547C17 10.1169 14.7614 12.3555 12 12.3555C9.23858 12.3555 7 10.1169 7 7.35547C7 4.59404 9.23858 2.35547 12 2.35547C14.7614 2.35547 17 4.59404 17 7.35547ZM15.5 7.35547C15.5 9.28847 13.933 10.8555 12 10.8555C10.067 10.8555 8.5 9.28847 8.5 7.35547C8.5 5.42247 10.067 3.85547 12 3.85547C13.933 3.85547 15.5 5.42247 15.5 7.35547Z" fill="white"/>
<path fill-rule="evenodd" clip-rule="evenodd" d="M20 17.8555C20 20.3407 16.4183 22.3555 12 22.3555C7.58172 22.3555 4 20.3407 4 17.8555C4 15.3702 7.58172 13.3555 12 13.3555C16.4183 13.3555 20 15.3702 20 17.8555ZM18.5 17.8555C18.5 18.3155 18.1527 19.0375 16.9215 19.7301C15.7373 20.3962 14.0003 20.8555 12 20.8555C9.99969 20.8555 8.26273 20.3962 7.07854 19.7301C5.84733 19.0375 5.5 18.3155 5.5 17.8555C5.5 17.3954 5.84733 16.6734 7.07854 15.9809C8.26273 15.3147 9.99969 14.8555 12 14.8555C14.0003 14.8555 15.7373 15.3147 16.9215 15.9809C18.1527 16.6734 18.5 17.3954 18.5 17.8555Z" fill="white"/>
</svg>
